<?xml version="1.0" encoding="iso-8859-1"?>
<!-- Generator: Adobe Illustrator 21.0.0, SVG Export Plug-In . SVG Version: 6.00 Build 0)  -->
<svg xmlns="http://www.w3.org/2000/svg" xmlns:xlink="http://www.w3.org/1999/xlink" version="1.1" id="Capa_1" x="0px" y="0px" viewBox="0 0 511.538 511.538" style="enable-background:new 0 0 511.538 511.538;" xml:space="preserve" width="512px" height="512px">
<g>
	<g>
		<path d="M495.564,479.038h-90.293c-7.852,0-14.37-6.05-14.956-13.872c-6.694-88.901-45.322-172.793-108.75-236.221    c-63.545-63.53-147.407-102.056-236.177-108.457c-7.837-0.557-13.916-7.09-13.916-14.956V14.931c0-4.146,1.714-8.101,4.731-10.928    c3.003-2.827,6.929-4.259,11.206-3.966c120.278,7.485,233.657,58.487,319.248,143.785    C451.97,229.428,503.049,342.807,510.535,463.1c0.264,4.146-1.201,8.188-4.043,11.206    C503.665,477.324,499.71,479.038,495.564,479.038z" fill="#C1C1C1"/>
	</g>
	<g>
		<path d="M314.978,479.038H224.07c-7.5,0-13.843-5.537-14.868-12.979c-5.684-41.704-24.639-79.717-54.829-109.922    c-30.205-30.19-68.218-49.146-109.922-54.829c-7.441-1.025-12.979-7.368-12.979-14.868v-90.908c0-4.233,1.787-8.276,4.937-11.118    s7.383-4.072,11.558-3.809C196.531,195.4,315.11,313.979,329.905,462.543c0.425,4.219-0.967,8.423-3.809,11.558    C323.255,477.25,319.212,479.038,314.978,479.038z" fill="#C1C1C1"/>
	</g>
	<circle cx="77.472" cy="435.038" r="76.5" fill="#C1C1C1"/>
</g>















</svg>
